<svg width="100" height="100" viewBox="0 0 100 100" fill="none" xmlns="http://www.w3.org/2000/svg">
<rect width="100" height="100" rx="10" fill="#2A2B2E"/>
<path d="M69.1611 29.6348H53.165V74H46.6367V29.6348H30.6748V24.2344H69.1611V29.6348Z" fill="white"/>
<path d="M69.1611 29.6348V33.6348H73.1611V29.6348H69.1611ZM53.165 29.6348V25.6348H49.165V29.6348H53.165ZM53.165 74V78H57.165V74H53.165ZM46.6367 74H42.6367V78H46.6367V74ZM46.6367 29.6348H50.6367V25.6348H46.6367V29.6348ZM30.6748 29.6348H26.6748V33.6348H30.6748V29.6348ZM30.6748 24.2344V20.2344H26.6748V24.2344H30.6748ZM69.1611 24.2344H73.1611V20.2344H69.1611V24.2344ZM69.1611 25.6348H53.165V33.6348H69.1611V25.6348ZM49.165 29.6348V74H57.165V29.6348H49.165ZM53.165 70H46.6367V78H53.165V70ZM50.6367 74V29.6348H42.6367V74H50.6367ZM46.6367 25.6348H30.6748V33.6348H46.6367V25.6348ZM34.6748 29.6348V24.2344H26.6748V29.6348H34.6748ZM30.6748 28.2344H69.1611V20.2344H30.6748V28.2344ZM65.1611 24.2344V29.6348H73.1611V24.2344H65.1611Z" fill="white"/>
<path d="M41 36L60 47" stroke="#2A2B2E" stroke-width="5"/>
</svg>
